<svg id="Layer_1" data-name="Layer 1" xmlns="http://www.w3.org/2000/svg" viewBox="0 0 261.53598 306.29173"><title>jp</title><path d="M321.17,311.77926a46.70586,46.70586,0,0,0,5.80444.53872c3.67789-.11449,6.24256-2.26739,6.41007-5.985a15.49871,15.49871,0,0,1,6.09534-12.04574c4.33843-3.51811,6.55584-7.78274,5.67206-13.82171-.7085-4.8414,5.39522-9.30486,9.80432-7.798-1.06485,4.76-5.803,9.2354-1.21375,15.00548,1.64109-1.19945,3.11749-2.27128,4.58609-3.35373,1.86992-1.37826,3.60424-3.69057,5.62438-3.97273,5.79818-.80993,9.22389-4.90518,13.22169-8.27059a4.21793,4.21793,0,0,0,1.42889-2.33518,6.36866,6.36866,0,0,1,4.83164-5.73988c.86764-.2676,1.72806-1.86728,1.812-2.91859.05831-.73094-1.06211-1.87763-1.92124-2.30389-3.54258-1.75767-5.86608-.96849-8.10574,2.19544a32.07593,32.07593,0,0,1-3.56308,3.61077c-1.35349-8.21406,4.06463-13.931,11.66566-13.084a40.33149,40.33149,0,0,0,4.22679.346c2.68911.01468,4.77151-1.00691,5.79524-3.69169,2.05264-5.38328,4.339-10.69019,6.08772-16.16941.58241-1.82484-.09279-4.0914-.35721-6.13477-.26259-2.02909-.77824-3.92387-3.41839-4.16748-.41812-.03857-.74284-1.08916-1.1318-1.70521,2.74874-.64842,5.3863-5.31682,4.70968-8.1911a13.119,13.119,0,0,0-.50485-1.31758c-1.94044-5.47751-1.98944-5.56808,3.23349-8.46559,1.99689-1.10782,2.7171-2.39857,2.1094-4.56534-.31652-1.12849-.447-2.3091-.66274-3.46594-.62259-3.33873.521-4.91566,3.814-5.0242,2.29588-.07569,4.59905.42887,6.28549-2.023.3644-.52982,2.48546-.07328,3.707.26,1.85841.50706,3.63794,1.30324,5.42375,1.96652,0,3.92821-.051,8.49663.03663,13.06236a5.69249,5.69249,0,0,0,.815,3.28153c10.09328,12.4186,10.36075,24.29574,4.14519,36.93221-1.238,2.517-1.584,5.507-2.1191,8.32119a34.052,34.052,0,0,0-.04749,5.40226c-3.13412-3.68737-6.12118-2.13739-7.84008-.40434-1.55774,1.57056-2.74611,4.8604-2.2146,6.902,1.74437,6.70039.53025,13.19524-.64585,19.60749-.71261,3.88515-2.90049,7.534-4.63782,11.18813-2.12376,4.46683-1.14077,8.42791,1.47279,12.26892.52473.77116.94109,1.61608,1.52433,2.6303a9.54809,9.54809,0,0,1-1.953,1.36178c-2.50246.93219-4.16983,2.42088-4.53806,5.253a6.38447,6.38447,0,0,1-4.37162,5.75787c-1.86525.69859-3.29688,2.5549-5.51639,4.38061-1.48519-5.50228,2.41831-9.53736,2.418-14.63792-4.979,1.314-4.65434,6.20262-6.32662,9.73084-1.18137-1.05623-1.90132-2.09374-2.882-2.49656-2.19184-.90036-4.51143.88286-4.98719,3.34593a36.89719,36.89719,0,0,1-1.91547,7.32682c-1.211,2.87673-3.91469,3.35546-6.85292,3.27267.79652-2.58481,1.5396-4.99626,2.43838-7.91291l-4.60045.29453c.03888,3.23254.94014,6.42255-1.98584,8.92178-2.3768,2.03009-4.1626,2.19689-5.42451-.67781-1.14483-2.60795-2.7954-3.06868-5.30414-2.56715-3.41042.68172-6.86,1.16746-10.2928,1.73726l-.39235-.81407q1.52623-1.05812,3.05241-2.11627l.06723-.99975-4.69657-.24028q-.392.5639-.784,1.12779c-.42432-1.64281-.84865-3.28563-1.25725-4.86749-4.3535,1.53174-4.97445,4.71816-1.30338,7.98779,1.80763,1.60994,3.67584,3.32852,1.762,5.53829a8.16635,8.16635,0,0,1-5.50718,2.78045c-2.15017-.04471-2.83155.85477-3.78632,2.23447-2.45479,3.54731-4.85643,7.15564-7.63248,10.4412a5.19175,5.19175,0,0,1-4.22549,1.16005c-3.42785-.64738-6.37623-4.9089-6.86683-8.36867-.71777-5.06188.2468-9.21341,4.75538-12.22743.667-.44589.87042-1.97117.7966-2.96038-.03209-.43017-1.62942-1.28271-1.97111-1.06967-5.07686,3.16528-9.94045-.50758-14.89105-.32477a11.8401,11.8401,0,0,0-4.05929.46241c-11.04637,4.66246-22.03351,9.46514-33.07139,14.148a6.9745,6.9745,0,0,1-2.9803.16913c-1.7835-.1024-3.55843-.34509-5.34043-.48473-2.98057-.23356-5.98216-.29335-8.94111-.68293-3.23869-.42641-2.63606-3.30278-2.66976-5.30485-.03393-2.0164,1.7084-2.26773,3.57358-2.37166a10.56318,10.56318,0,0,0,9.24065-6.54419,9.60587,9.60587,0,0,1,5.87938-5.33151,20.52179,20.52179,0,0,0,7.80187-6.22377c2.70095-3.305,4.64325-4.25733,8.809-4.02852,3.91225.2149,7.87849-.40209,11.81141-.75852,3.71972-.3371,7.45788-.63656,11.12934-1.28455a51.14844,51.14844,0,0,0,7.65444-2.25639C320.46266,307.0279,321.46515,307.70632,321.17,311.77926Z" transform="translate(-225.47414 -96.64574)"/><path d="M487.01012,122.42251c-.33507,1.46932-.366,3.10413-1.05954,4.3784-2.56771,4.71814-4.25052,9.04871-.84541,14.44543,2.164,3.42956.9182,7.61852-2.06151,10.68941-2.73386,2.81749-6.44666,2.88025-9.794,2.08128-3.97059-.94772-7.00115-.2638-9.91507,2.52149-4.75315,4.54334-9.00128,9.25661-9.41352,16.31786-.0606,1.038-1.08958,2.01942-1.41351,2.58127-3.60779-2.10167-6.68128-3.91354-9.77563-5.689-3.56727-2.04678-7.21862-3.95515-10.71474-6.11575-4.82272-2.98045-7.37745-2.897-11.68281.77329-.806.68713-1.58,1.41425-2.33987,2.15272-1.84724,1.79524-3.36742,1.60191-4.2427-.86062-.76554-2.15388-2.0502-3.76744-4.35951-2.91866a9.5374,9.5374,0,0,0-4.76557,3.45491c-1.52275,2.54934.485,3.96445,2.74244,4.97992,5.70844,2.56783,6.91069,3.62154,10.48269,9.12788a67.44881,67.44881,0,0,0-7.613,1.27851c-1.39433.39438-3.15068,1.25893-3.73845,2.42091-1.64484,3.25183-3.89767,3.69717-7.0962,2.51645,0-4.01633.063-7.98128-.05153-11.94108a3.79571,3.79571,0,0,0-1.11658-2.40488c-3.79133-3.53685-3.88986-6.39945-.22831-10.16085,1.9718-2.02556,3.971-4.02881,5.85539-6.13384,1.88575-2.10656,4.49007-4.02176,1.80376-7.44525-.41911-.53414.71922-2.29036,1.225-3.73121,1.14088.56605,1.77219.82269,2.346,1.17342,3.11945,1.90665,8.05625,1.80408,10.63122-.52194.75667-.68351.92677-2.06379,1.26295-3.15635.96239-3.12764,1.86944-6.2723,2.803-9.40884,1.69832-5.70609,4.064-11.32038,4.86088-17.14938.509-3.72382-1.22165-7.78214-2.09221-11.65815-.84878-3.77913-.12942-5.75409,3.36027-7.25208a3.404,3.404,0,0,1,3.00209.70154c3.4609,3.4973,7.09039,6.91605,9.99572,10.8534,3.99279,5.41111,7.67,10.98559,13.38463,14.83741,2.79511,1.884,5.17535,4.25786,9.13268,3.39668,1.968-.42828,3.72858.64949,4.53231,3.019.79146,2.33331,1.94838,2.77071,4.9879,1.9618C480.62761,130.06634,481.9341,124.64154,487.01012,122.42251Z" transform="translate(-225.47414 -96.64574)"/><path d="M239.24457,362.15156c-4.43917,2.04262.15033,5.87189-.62491,6.90849-4.33713-3.36049-8.67425-6.721-13.14552-10.18541,2.48886-2.6844,4.48084-4.6513,7.82392-4.52875a4.19355,4.19355,0,0,0,2.8277-1.15755c2.872-2.955,7.053-4.94512,6.8398-10.27429l1.3342-.29777c2.11645,1.79143,4.54071,3.33155,6.26494,5.44323,1.81478,2.22261,2.91821,4.28372,6.63236,3.65165,2.64966-.4509,6.06038-.15978,6.99579,4.05646.6172,2.78192,2.70852,5.24563,3.27129,8.02753.34932,1.72674-.31955,4.59544-1.58454,5.53775-3.8366,2.8579-4.70837,6.77307-5.45238,10.99126-1.08311,6.14081-2.30856,12.25673-3.496,18.37886-.78693,4.05724-1.54678,4.73367-5.78138,3.94726-4.12142-.76537-8.15933-1.98041-12.75507-3.12818,2.9218-6.1274.62119-11.35406-1.06758-16.69259-.55952-1.76871-.43372-3.7426-.84116-5.57375-.60886-2.73645.4934-4.32627,2.81325-5.72019C245.62845,367.73266,245.57368,366.21189,239.24457,362.15156Z" transform="translate(-225.47414 -96.64574)"/><path d="M302.98727,358.10674c-.58221-.47833-1.4064-1.1342-2.20752-1.81715-5.12332-4.36761-9.96872-3.0998-12.73022,3.194a38.23291,38.23291,0,0,1-3.46971,6.03856c-1.04483,1.53731-2.46655,3.50174-4.52535,1.96249-1.595-1.19249-2.65892-3.16807-3.76005-4.92052-.62985-1.00241-.57093-2.5173-1.32229-3.35029-3.83-4.24605-3.25512-7.599,1.74448-10.61152,1.3376-.806,2.25025-2.33838,3.30961-3.57865.98294-1.15077,1.90129-2.35672,2.48-3.079,2.7778.61993,5.10015,1.5523,7.40183,1.50383a6.03722,6.03722,0,0,0,4.32811-2.38058c3.751-5.94863,7.395-7.17559,13.2543-3.63366,3.26566,1.97413,6.04,4.32247,5.48393,8.95862a5.48934,5.48934,0,0,1-2.32868,4.22486A100.93539,100.93539,0,0,0,302.98727,358.10674Z" transform="translate(-225.47414 -96.64574)"/><path d="M317.14483,332.79395a38.1555,38.1555,0,0,1-1.50435,5.1308c-.23637.54375-1.43958.66727-2.20084.98289-.25656-.89153-1.00364-2.08847-.6753-2.61579a27.59062,27.59062,0,0,1,3.40659-3.84305Z" transform="translate(-225.47414 -96.64574)"/></svg>