<svg id="Layer_1" data-name="Layer 1" xmlns="http://www.w3.org/2000/svg" viewBox="0 0 337.20517 310.0431"><title>taiwan</title><path d="M353.83913,320.2867c1.03771-.814,3.38691-1.80654,1.64856-3.95669-.4292-.53084-3.01865.68487-4.79861,1.14518.00229.01738-.10895-.6535-.17139-1.32887-.17519-1.89526-.602-2.96854-2.70229-1.36764-.54078.41216-1.76152-.06785-2.66988-.138.36179-.83754.5102-1.93227,1.13607-2.45156.90793-.75334,2.16076-1.091,4.01088-1.95267l-3.83984-1.6684,2.16252-.6379c-.89545-1.0881-1.73213-2.10475-1.98293-2.40953,1.00023-3.74135,1.535-6.95869,2.74867-9.89549.9683-2.3431.32226-5.87092,4.08991-6.86338q-1.05325-.22111-2.10651-.44225l-.38322-.90429,4.21133-2.14125c-.72414-1.50338-2.04827-3.31574-2.422-5.30648-.33552-1.78748.37351-3.771.133-5.48413-.32122-1.1396-.97131-2.30233-.89321-3.41386.14917-2.12278.94579-4.20476,1.05173-6.32476.16829-3.36846,1.28782-6.29533,2.40165-9.46107,1.79442-5.10022,3.66819-9.82886,7.03105-14.1269,1.12586-1.43894,1.94327-3.141,3.21954-4.65851,1.89513-2.25337,2.923-5.27029,4.159-8.03419,1.2301-2.75055,1.98117-5.4746,5.145-7.19565,1.77467-.96538,2.38433-4.09505,3.4857-6.26642.59289-1.16888.81964-2.70486,1.71849-3.50769,5.73122-5.119,7.029-12.59828,10.40248-18.96332a21.50632,21.50632,0,0,1,3.17626-4.56409c2.69254-2.89261,5.57481-5.34522,6.78123-9.58331.89673-3.15016,1.594-7.36194,6.04847-8.41684.45617-.108.7365-.97387,1.091-1.49313,1.79172-2.6242,4.00282-4.314,7.14971-3.32279,1.05307-1.91093,1.97092-3.72806,3.02719-5.46082,2.024-3.32041,2.95554-7.38655,4.79648-10.41335,3.80641-6.25834,6.019-13.79572,12.3467-18.39679.51251-.37266.94893-.99055,1.51177-1.132,6.60236-1.659,12.074-6.29431,19.14456-6.91625,3.20389-.28183,6.247-2.098,9.44774-2.8649,1.15293-.27624,2.577.40793,3.8304.80279.53339.168.94635.71843,1.414,1.09507l.71982-.68772-3.646-4.32172c9.40579-12.3826,15.63439-12.745,22.43013-1.1314l2.98189-.41741c-.44911,3.41014,1.9265,4.39795,4.299,4.99786,5.18491,1.311,10.43418,2.3672,15.80733,3.56085,0,1.49557-.11331,2.836.023,4.15059.308,2.97006,1.41825,4.95944,5.03967,4.418,1.30266-.19477,2.74253.52816,4.12967,1.56284-.71323.29035-1.45743.522-2.13489.88-7.64813,4.04182-14.243,9.0246-15.53035,18.38814a31.35815,31.35815,0,0,0,.25087,5.33066c.08261,2.17325.21588,4.35194.14279,6.52206-.118,3.50567,1.9041,5.14091,5.69513,6.07385l-3.25116.78334c.86723,2.70018,2.753,5.46118-1.25825,7.12859.37336,1.10921.7025,2.087,1.14243,3.394-5.85346,2.07823-5.153,7.98117-6.95466,12.49753-.343.85995.265,2.09926.46074,3.33075-1.84989,2.40864-4.01535,5.312-6.28568,8.13089a29.68052,29.68052,0,0,1-2.38859,2.03571,9.42424,9.42424,0,0,0-1.89433,2.3326,45.74823,45.74823,0,0,0-3.25934,7.431c-.45171,1.56513.07893,3.411.15264,5.13145a25.35374,25.35374,0,0,1,.0918,3.99758,26.64383,26.64383,0,0,1-1.02288,4.22481c-2.52592,8.73642-5.25179,17.42014-7.54432,26.217-1.34993,5.18-2.04836,10.53194-2.99239,15.815-.74168,4.15084-1.29379,8.33982-2.1798,12.45817a8.14114,8.14114,0,0,1-2.11924,3.63925c-3.01522,3.15164-3.75625,7.04836-3.72176,11.10806a12.91055,12.91055,0,0,1-4.32361,10.3226c-2.09727,1.98113-3.0912,5.3276-4.08723,8.23153-1.54314,4.499-3.73017,8.35456-7.831,11.0044-1.863,1.20377-3.308,2.58395-3.15435,5.351.197,3.54685-2.45193,5.76063-5.21073,7.38254-5.2404,3.08084-9.9169,6.59638-12.17136,12.53346a4.38321,4.38321,0,0,1-.77643,1.37365,18.79885,18.79885,0,0,0-4.47958,9.55236c-.51123,2.73242-2.51133,5.15152-3.48341,7.842-1.01885,2.81986-2.13964,5.77344-2.26839,8.71011-.30082,6.86243-.0365,13.74972.00428,20.627a10.07771,10.07771,0,0,1-2.40777,6.8782c-1.26916,1.57116-.8667,4.49256-1.18908,6.6695-1.49091-.85335-3.27087-2.0057-5.16582-2.9195-1.92217-.92694-4.20106-2.32442-4.26521,1.964-.85205-.43028-1.61748-.58482-1.67745-.8818-.937-4.64035-4.7919-8.79966-2.27517-14.04843a4.161,4.161,0,0,0-.0875-2.9462c-2.86211-7.41047-4.73246-15.3806-10.30929-21.38913-2.61439-2.81676-5.984-4.94272-9.067-7.30914a25.19084,25.19084,0,0,0-3.74081-2.33473,12.22028,12.22028,0,0,0-3.66476-1.44026c-2.7812-.41069-4.65661-2.69812-5.7845-5.19818a22.396,22.396,0,0,0-5.37964-7.11971c-1.8203-1.64655-2.98757-2.76084-2.11738-5.47352.42278-1.318-.40585-3.22917-1.09068-4.671-1.4595-3.07276-2.78659-5.8651-3.03922-9.59386C358.22592,329.4665,355.61149,325.12576,353.83913,320.2867Z" transform="translate(-184.96989 -107.28216)"/><path d="M184.96989,189.79666v-7.17257c2.54342-3.4593,5.54658,2.30709,8.46024.23875a1.64893,1.64893,0,0,0,.2283-.50265c.19389-1.76742.1731-4.238,2.47071-3.94487,1.54994.19777,3.224,1.96092,4.20423,3.44533a4.76137,4.76137,0,0,1-.47781,6.31721,23.19291,23.19291,0,0,1-2.41095-.92562,5.55131,5.55131,0,0,0-7.15625,1.27C188.581,190.38566,186.8823,191.0795,184.96989,189.79666Z" transform="translate(-184.96989 -107.28216)"/><path d="M310.65307,267.87642c-3.01566-.71781-5.14292-1.06365-6.73934,1.90991-1.20448,2.24347-3.39646,2.11651-5.374.21405,1.36009-.302,2.63379-.58476,3.83831-.85217l-2.51272-3.83034c1.35854-.66,2.71707-1.31994,3.56782-1.73321,1.97718.42166,3.56423.76014,5.68812,1.21311C309.37233,265.30231,309.91986,266.40277,310.65307,267.87642Z" transform="translate(-184.96989 -107.28216)"/><path d="M476.62493,402.94584h5.0585c.94337,2.11986,1.763,3.96157,2.56928,5.77348C480.0087,409.89895,477.38466,407.97315,476.62493,402.94584Z" transform="translate(-184.96989 -107.28216)"/><path d="M295.53722,259.85168c-.66364,2.10494-1.32729,4.20986-2.04706,6.49278l-2.32336.5945c1.1615-2.45317,2.36658-4.99834,3.57167-7.54354Z" transform="translate(-184.96989 -107.28216)"/><path d="M302.12481,261.43694l-2.79265-4.06641c1.227,0,2.63539-.2853,2.80506.05218a16.595,16.595,0,0,1,.97666,3.73331Z" transform="translate(-184.96989 -107.28216)"/><path d="M341.89881,277.91556l7.9883-7.58661C348.53948,274.3765,345.13461,276.06714,341.89881,277.91556Z" transform="translate(-184.96989 -107.28216)"/><path d="M476.80345,348.4428c-.40575,1.67448-.62128,2.56391-.83677,3.45336l-1.02168.932q-1.25567-1.40471-2.51127-2.80941l.65232-1.14714Z" transform="translate(-184.96989 -107.28216)"/></svg>